<svg width="60" height="60" viewBox="0 0 60 60" fill="none" xmlns="http://www.w3.org/2000/svg">
<rect width="60" height="60" rx="13" fill="#C4C4C4"/>
<path d="M23.444 45.383C22.8131 44.9619 22.2528 44.4462 21.7846 43.8506C21.2738 43.2336 20.8002 42.5847 20.3654 41.913C19.3436 40.4206 18.5446 38.7882 17.9911 37.0679C17.3241 35.0664 17 33.1502 17 31.2753C17 29.1831 17.4535 27.3575 18.3365 25.8251C18.9901 24.6258 19.9639 23.6224 21.1377 22.9175C22.2715 22.2112 23.592 21.8248 24.9259 21.7981C25.3928 21.7981 25.8997 21.8647 26.4332 21.998C26.82 22.1046 27.2869 22.2778 27.8605 22.491C28.5941 22.7709 28.9943 22.9441 29.1276 22.9841C29.5545 23.144 29.9146 23.2106 30.1947 23.2106C30.4082 23.2106 30.715 23.144 31.0551 23.0374C31.2485 22.9708 31.6153 22.8508 32.1355 22.6243C32.6504 22.4377 33.0586 22.2778 33.3827 22.1579C33.8763 22.0113 34.3538 21.8781 34.7833 21.8114C35.3035 21.7315 35.8197 21.7048 36.3146 21.7448C37.2616 21.8114 38.1287 22.0113 38.9023 22.3045C40.2629 22.8508 41.3607 23.7037 42.1797 24.9163C41.8329 25.1295 41.5127 25.3774 41.2126 25.6492C40.563 26.2222 40.0121 26.9018 39.5719 27.6547C38.9984 28.6808 38.7049 29.8401 38.7129 31.0127C38.7329 32.4559 39.0997 33.7245 39.8334 34.8239C40.3496 35.6234 41.0392 36.3083 41.8795 36.8707C42.293 37.1505 42.6559 37.3437 43 37.4703C42.8399 37.97 42.6639 38.4564 42.4598 38.9361C41.9969 40.0115 41.446 41.0416 40.7924 42.0143C40.2162 42.8538 39.7627 43.4801 39.4185 43.8932C38.8823 44.5329 38.3648 45.0126 37.8446 45.355C37.271 45.7348 36.5974 45.936 35.9078 45.936C35.4409 45.956 34.974 45.8961 34.5285 45.7668C34.1417 45.6402 33.7602 45.4976 33.3867 45.3364C32.9959 45.1578 32.5917 45.0059 32.1796 44.8833C31.6727 44.7501 31.1525 44.6861 30.6269 44.6874C30.0934 44.6874 29.5732 44.7541 29.0796 44.8807C28.6661 44.9979 28.266 45.1418 27.8698 45.3137C27.3096 45.5469 26.9427 45.7002 26.7293 45.7668C26.2971 45.8947 25.8543 45.972 25.4088 46C24.7152 46 24.0696 45.8001 23.4266 45.4003L23.444 45.383ZM32.5864 20.784C31.6794 21.2371 30.8177 21.429 29.9546 21.365C29.8213 20.5042 29.9546 19.6194 30.3148 18.6506C30.6349 17.8244 31.0618 17.0782 31.6487 16.4119C32.2623 15.719 32.9959 15.146 33.8229 14.7329C34.7033 14.2798 35.5436 14.04 36.3439 14C36.4506 14.9061 36.3439 15.799 36.0105 16.7584C35.7063 17.6112 35.2528 18.3974 34.6766 19.1037C34.0963 19.7966 33.3761 20.3696 32.5611 20.7827L32.5864 20.784Z" fill="white"/>
</svg>
